<svg width="32" height="32" viewBox="0 0 24 24" fill="none" xmlns="http://www.w3.org/2000/svg">
<path fill-rule="evenodd" clip-rule="evenodd" d="M17 15C17.1977 15 17.391 14.9413 17.5554 14.8314C17.7198 14.7215 17.848 14.5654 17.9236 14.3827C17.9993 14.2 18.0191 13.9989 17.9806 13.805C17.942 13.611 17.8468 13.4329 17.707 13.293L12.707 8.293C12.5194 8.10553 12.2651 8.00021 12 8.00021C11.7348 8.00021 11.4805 8.10553 11.293 8.293L6.29297 13.293C6.15316 13.4329 6.05795 13.611 6.01939 13.805C5.98082 13.9989 6.00062 14.2 6.07629 14.3827C6.15196 14.5654 6.2801 14.7215 6.44451 14.8314C6.60892 14.9413 6.80222 15 6.99997 15H17Z" fill="currentColor"/>
</svg>
